<?xml version="1.0" encoding="UTF-8" standalone="no"?><!DOCTYPE svg PUBLIC "-//W3C//DTD SVG 1.1//EN" "http://www.w3.org/Graphics/SVG/1.1/DTD/svg11.dtd"><svg width="100%" height="100%" viewBox="0 0 22 22" version="1.1" xmlns="http://www.w3.org/2000/svg" xmlns:xlink="http://www.w3.org/1999/xlink" xml:space="preserve" xmlns:serif="http://www.serif.com/" style="fill-rule:evenodd;clip-rule:evenodd;stroke-linejoin:round;stroke-miterlimit:1.41421;"><path d="M0.479,0.487l0,8.86c0,5.701 3.309,9.819 9.834,12.235l0.463,0.169l0.263,0l0.203,-0.074c0.087,-0.031 0.172,-0.063 0.258,-0.095c6.526,-2.418 9.834,-6.534 9.834,-12.235l0,-8.86l-20.855,0Zm13.962,1.485l5.408,0l0,7.375c0,5.015 -2.983,8.664 -8.865,10.843c-0.027,0.009 -0.052,0.019 -0.078,0.028c-0.025,-0.009 -0.051,-0.019 -0.076,-0.029c-5.883,-2.178 -8.866,-5.826 -8.866,-10.842l0,-7.375l5.354,0l0,6.177l-1.605,0c-0.256,-0.445 -0.738,-0.746 -1.29,-0.746c-0.823,0 -1.49,0.666 -1.49,1.489c0,0.823 0.667,1.489 1.49,1.489c0.552,0 1.034,-0.301 1.29,-0.747l3.09,0l0,-7.662l1.361,0l0,12.343c-0.446,0.257 -0.746,0.739 -0.746,1.29c0,0.822 0.667,1.489 1.488,1.489c0.823,0 1.49,-0.667 1.49,-1.489c0,-0.551 -0.301,-1.033 -0.747,-1.29l0,-12.343l1.306,0l0,10.272l2.43,0c0.257,0.446 0.74,0.747 1.291,0.747c0.822,0 1.489,-0.667 1.489,-1.49c0,-0.822 -0.667,-1.488 -1.489,-1.488c-0.551,0 -1.034,0.3 -1.291,0.746l-0.944,0l0,-8.787Z" style="fill:#2b7ae5;fill-rule:nonzero;"/></svg>