<?xml version="1.0" encoding="UTF-8" standalone="no"?><!DOCTYPE svg PUBLIC "-//W3C//DTD SVG 1.1//EN" "http://www.w3.org/Graphics/SVG/1.1/DTD/svg11.dtd"><svg width="100%" height="100%" viewBox="0 0 107 22" version="1.1" xmlns="http://www.w3.org/2000/svg" xmlns:xlink="http://www.w3.org/1999/xlink" xml:space="preserve" xmlns:serif="http://www.serif.com/" style="fill-rule:evenodd;clip-rule:evenodd;stroke-linejoin:round;stroke-miterlimit:1.41421;"><path d="M1.479,0.641l0,8.859c0,5.702 3.308,9.819 9.834,12.235l0.462,0.169l0.263,0l0.203,-0.074c0.087,-0.031 0.173,-0.063 0.259,-0.095c6.525,-2.417 9.834,-6.533 9.834,-12.235l0,-8.859l-20.855,0Zm13.961,1.485l5.408,0l0,7.374c0,5.015 -2.982,8.664 -8.865,10.844c-0.026,0.009 -0.051,0.018 -0.077,0.027c-0.025,-0.009 -0.052,-0.018 -0.077,-0.028c-5.882,-2.179 -8.865,-5.827 -8.865,-10.843l0,-7.374l5.353,0l0,6.177l-1.605,0c-0.256,-0.446 -0.738,-0.746 -1.289,-0.746c-0.823,0 -1.49,0.666 -1.49,1.488c0,0.823 0.667,1.489 1.49,1.489c0.551,0 1.033,-0.301 1.289,-0.746l3.091,0l0,-7.662l1.36,0l0,12.342c-0.445,0.257 -0.746,0.739 -0.746,1.29c0,0.823 0.667,1.49 1.489,1.49c0.822,0 1.489,-0.667 1.489,-1.49c0,-0.551 -0.3,-1.033 -0.747,-1.29l0,-12.342l1.307,0l0,10.271l2.43,0c0.257,0.447 0.739,0.747 1.291,0.747c0.821,0 1.489,-0.667 1.489,-1.489c0,-0.823 -0.668,-1.489 -1.489,-1.489c-0.552,0 -1.034,0.3 -1.291,0.746l-0.945,0l0,-8.786Z" style="fill:#2b7ae5;fill-rule:nonzero;"/><text x="29.939px" y="18.034px" style="font-family:'Oxygen-Bold', 'Oxygen';font-weight:700;font-size:21.73px;fill:#d1230f;">S<tspan x="42.143px 53.487px 63.154px 74.959px 81.795px " y="18.034px 18.034px 18.034px 18.034px 18.034px ">ecure</tspan></text></svg>